<svg xmlns="http://www.w3.org/2000/svg" xmlns:xlink="http://www.w3.org/1999/xlink" width="257" height="257" viewBox="0 0 257 257"><defs><circle id="logo-a" cx="128.5" cy="128.5" r="124.5"/></defs><g fill="none" fill-rule="evenodd"><circle cx="128" cy="128" r="125" fill="#FFF" transform="translate(.5 .5)"/><mask id="logo-b" fill="#fff"><use xlink:href="#logo-a"/></mask><use fill="#4A90E2" xlink:href="#logo-a"/><g mask="url(#logo-b)"><g><path fill="#FFF" d="M72.1314807,60.2293552 C65.720155,71.0225327 59.5776105,81.4747596 53.3072455,91.8480296 C51.6969479,94.5110326 50.9001612,96.6799564 52.1867269,100.065535 C55.7382214,109.41715 50.7281413,118.517538 41.3112454,120.987934 C32.4307171,123.318361 23.7783541,117.473153 22.0163445,107.951661 C20.4550249,99.5236033 26.9858088,91.2618339 36.2641332,89.9446883 C37.0418066,89.8334307 37.8350095,89.8202712 39.1418831,89.7221732 C43.6884651,82.0872742 48.3461433,74.266946 53.2558785,66.0207288 C44.3789339,57.181138 39.0952943,46.8473465 40.2647909,34.0431592 C41.0914421,24.9918202 44.6453259,17.1702957 51.141467,10.7592296 C63.5830465,-1.51738167 82.563772,-3.50566153 97.2129405,5.91773225 C111.282736,14.9690713 117.726316,32.6004001 112.233624,47.6907504 C108.092006,46.5662119 103.921717,45.4321028 99.3369087,44.1867361 C101.061886,35.7969608 99.7860718,28.2625525 94.1356953,21.808419 C90.4026242,17.5471357 85.6123473,15.3136107 80.1650498,14.4905442 C69.2453688,12.8384296 58.5239885,19.8644029 55.3428145,30.5977645 C51.7315908,42.7798666 57.196807,52.7308365 72.1314807,60.2293552 Z" transform="translate(52 51)"/><path fill="#4B4B4B" d="M90.3182197,47.6666868 C94.8417862,55.654736 99.4347436,63.7637437 103.987024,71.7984996 C126.996077,64.6727286 144.343793,77.4224695 150.567436,91.0728121 C158.084381,107.561487 152.945867,127.09089 138.182363,137.263377 C123.028834,147.706524 103.864991,145.922087 90.4390555,132.507674 C93.860743,129.640599 97.2991799,126.76035 100.973307,123.683694 C114.23414,132.281326 125.831985,131.876534 134.442435,121.695663 C141.784706,113.010606 141.625585,100.060864 134.070356,91.5578435 C125.351035,81.7458365 113.671835,81.4464343 99.554383,90.8656258 C93.6980334,80.4655929 87.7399902,70.148195 82.0690816,59.6727128 C80.1572437,56.1421627 78.0456079,54.0942521 73.736196,53.3469443 C66.5386884,52.0978386 61.8918933,45.9109927 61.6131334,38.9792342 C61.3391592,32.1241227 65.3734004,25.927696 71.6795943,23.5133171 C77.9259685,21.1216927 85.2562758,23.0522378 89.4580123,28.3684222 C92.8916637,32.7121485 93.9827752,37.6007868 92.1762199,42.9576899 C91.6737344,44.4511078 91.0228959,45.8966214 90.3182197,47.6666868 Z" style="mix-blend-mode:multiply" transform="translate(52 51)"/><path fill="#4A4A4A" d="M101.69084,112.366238 L73.9372782,112.366238 C71.2772422,123.23373 65.5316124,132.007977 55.6310998,137.587583 C47.9350966,141.924102 39.6397162,143.394613 30.8108901,141.978874 C14.5557805,139.374819 1.26399175,124.83998 0.0940074647,108.472659 C-1.23061614,89.932315 11.5996521,73.4518771 28.7010823,69.75 C29.8818554,74.0091234 31.074616,78.3087304 32.2553891,82.5571375 C16.5648928,90.5086124 11.1345354,100.527137 15.5255728,113.054461 C19.3915557,124.079125 30.372146,130.121913 42.2949572,127.784574 C54.4707056,125.398417 60.6095268,115.347744 59.8603053,99.2173706 C71.4031114,99.2173706 82.9555075,99.0983009 94.4995123,99.2757148 C99.0068288,99.3459659 102.486813,98.8815941 105.882884,94.9344333 C111.473875,88.4391809 121.763982,89.0250039 127.785326,95.1594751 C133.938532,101.428495 133.643638,111.51608 127.132004,117.520766 C120.849333,123.314698 110.923646,123.005116 105.046153,116.762292 C103.837809,115.475148 102.885998,113.947484 101.69084,112.366238 Z" style="mix-blend-mode:multiply" transform="translate(52 51)"/></g></g></g></svg>