<svg xmlns="http://www.w3.org/2000/svg" xmlns:xlink="http://www.w3.org/1999/xlink" width="257" height="257" viewBox="0 0 257 257">
  <defs>
    <circle id="logo-a" cx="128.5" cy="128.5" r="125"/>
  </defs>
  <g fill="none" fill-rule="evenodd">
    <circle cx="128" cy="128" r="125" fill="#FFF" transform="translate(.5 .5)"/>
    <mask id="logo-b" fill="#fff">
      <use xlink:href="#logo-a"/>
    </mask>
    <g mask="url(#logo-b)">
      <g transform="translate(26 33)">
        <path fill="#4A90E2" d="M96.0191789,80.305807 C87.484622,94.6967102 79.3078581,108.633013 70.9609437,122.464039 C68.8173658,126.01471 67.7567081,128.906608 69.4693442,133.420714 C74.1969831,145.889533 67.5277206,158.023384 54.9922422,161.317245 C43.1707598,164.424481 31.6530039,156.63087 29.3074716,143.935548 C27.2290915,132.698138 35.9226676,121.682445 48.2736838,119.926251 C49.3088984,119.777908 50.3647854,119.760362 52.1044547,119.629564 C58.156723,109.449699 64.356879,99.0225947 70.8925655,88.0276384 C59.0758536,76.2415173 52.0424373,62.4631287 53.5992346,45.3908789 C54.699647,33.3224269 59.4304663,22.8937275 68.0779268,14.3456395 C84.6397696,-2.02317555 109.90632,-4.67421537 129.406836,7.89030967 C148.13611,19.9587617 156.713602,43.4672002 149.401902,63.5876672 C143.888709,62.0882825 138.337351,60.576137 132.234197,58.9156482 C134.530433,47.729281 132.832109,37.6834033 125.310503,29.077892 C120.341156,23.3961809 113.964488,20.4181476 106.713216,19.3207256 C92.1772766,17.1179061 77.9053093,26.4858705 73.6706298,40.7970193 C68.8634813,57.0398222 76.1386067,70.307782 96.0191789,80.305807 Z"/>
        <path fill="#4B4B4B" d="M120.228799,63.5555824 C126.25043,74.2063147 132.364431,85.0183249 138.424285,95.7313329 C169.053219,86.2303048 192.145958,103.229959 200.430677,121.430416 C210.437,143.415316 203.596772,169.45452 183.944055,183.017836 C163.772149,196.942032 138.261839,194.562783 120.389652,176.676898 C124.944496,172.854132 129.521636,169.0138 134.412518,164.911591 C152.064927,176.375101 167.503617,175.835378 178.965579,162.260884 C188.739381,150.680808 188.527565,133.414486 178.470279,122.077125 C166.863391,108.994449 151.316403,108.595246 132.523692,121.154168 C124.727902,107.287457 116.79674,93.5309267 109.247803,79.5636171 C106.702824,74.856217 103.891881,72.1256694 98.1553258,71.1292591 C88.5742281,69.4637848 82.3885592,61.2146569 82.0174828,51.9723123 C81.6527768,42.8321636 87.0230331,34.5702613 95.4176418,31.3510894 C103.73262,28.162257 113.490497,30.736317 119.083718,37.824563 C123.654487,43.6161981 125.106941,50.1343823 122.702111,57.2769199 C122.033218,59.2681437 121.166842,61.1954951 120.228799,63.5555824 Z"/>
        <path fill="#4A4A4A" d="M135.367677,149.821651 L98.4230002,149.821651 C94.8820432,164.31164 87.2336398,176.010636 74.0543861,183.450111 C63.8097065,189.232136 52.7671547,191.192817 41.0144965,189.305165 C19.3762013,185.833093 1.68258643,166.453307 0.125139807,144.630212 C-1.63815785,119.909753 15.4410954,97.9358362 38.2059862,93 C39.7777946,98.6788311 41.3655603,104.411641 42.9373686,110.076183 C22.0506691,120.67815 14.8219465,134.036183 20.6671586,150.739281 C25.8134346,165.438833 40.4304541,173.495883 56.3017287,170.379432 C72.5097055,167.19789 80.681513,153.796991 79.6841727,132.289828 C95.0495963,132.289828 110.427786,132.131068 125.794805,132.36762 C131.794805,132.461288 136.427251,131.842125 140.947995,126.579244 C148.390547,117.918908 162.088418,118.700005 170.103843,126.8793 C178.294799,135.237993 177.902246,148.688107 169.234162,156.694354 C160.870865,164.419597 147.658101,164.006822 139.834165,155.683056 C138.225655,153.966864 136.958634,151.929978 135.367677,149.821651 Z"/>
      </g>
    </g>
  </g>
</svg>
