<svg xmlns="http://www.w3.org/2000/svg" xmlns:xlink="http://www.w3.org/1999/xlink" width="640" height="360" viewBox="0 0 640 360">
  <defs>
    <linearGradient id="picture-b" x1="50%" x2="50%" y1="100%" y2="8.717%">
      <stop offset="0%" stop-color="#FFF"/>
      <stop offset="100%" stop-color="#F1F5F9"/>
    </linearGradient>
    <rect id="picture-a" width="640" height="360"/>
  </defs>
  <g fill="none" fill-rule="evenodd">
    <rect width="640" height="360"/>
    <mask id="picture-c" fill="#fff">
      <use xlink:href="#picture-a"/>
    </mask>
    <use fill="url(#picture-b)" xlink:href="#picture-a"/>
    <g mask="url(#picture-c)">
      <g transform="translate(86 114)">
        <path fill="#4A90E2" d="M65.3659468,55.5536066 C59.5641204,65.3151148 54.0055231,74.7682623 48.3312569,84.15 C46.874044,86.558459 46.1530046,88.5200656 47.3172616,91.5820328 C50.5311296,100.03977 45.997338,108.270295 37.475669,110.504557 C29.4393773,112.61223 21.6095602,107.325738 20.0150579,98.7143607 C18.6021667,91.0919016 24.5120949,83.6198361 32.9083657,82.4285902 C33.6121088,82.3279672 34.3299051,82.3160656 35.5125394,82.2273443 C39.6268958,75.3222295 43.841787,68.2494098 48.2847731,60.7914098 C40.2517245,52.7967541 35.4703796,43.4507213 36.5286968,31.8704262 C37.2767616,23.6842623 40.4927917,16.6103607 46.3713704,10.8120984 C57.6301782,-0.29104918 74.8064815,-2.08927869 88.0630116,6.43337705 C100.795248,14.619541 106.626262,30.5655738 101.655738,44.2135082 C97.9078472,43.196459 94.1340116,42.1707541 89.9850625,41.0444262 C91.5460532,33.4565902 90.3915255,26.6423607 85.2783079,20.8051475 C81.900125,16.9511803 77.5652407,14.9311475 72.6357963,14.1867541 C62.754206,12.6925574 53.0520648,19.0469508 50.1733125,28.7543607 C46.9053935,39.7720328 51.8510532,48.7718361 65.3659468,55.5536066 Z"/>
        <text font-family="Helvetica-Bold, Helvetica" font-size="36" font-weight="bold" opacity=".5">
          <tspan x="148.002" y="35" fill="#4B4B4B">incoming</tspan>
        </text>
        <path fill="#4B4B4B" d="M81.9347176,44.0100984 C86.0220486,51.2268197 90.1720787,58.5528197 94.2853542,65.8117377 C115.075502,59.3740328 130.750271,70.8926557 136.373729,83.224918 C143.165769,98.1214426 138.522794,115.765082 125.183025,124.955311 C111.490845,134.390066 94.1750903,132.777934 82.0439005,120.65882 C85.1356134,118.06859 88.2424606,115.466459 91.5622685,112.686885 C103.544278,120.454328 114.023671,120.088623 121.803762,110.89082 C128.437972,103.044393 128.294197,91.345082 121.467565,83.6631148 C113.589102,74.7985574 103.036199,74.5280656 90.2801806,83.0377377 C84.9885949,73.6419344 79.6051227,64.3207869 74.4810949,54.8568197 C72.7536273,51.6671803 70.8456296,49.8170164 66.9518009,49.1418689 C60.4483935,48.013377 56.2497176,42.4239344 55.9978403,36.1615082 C55.750287,29.9683279 59.3954815,24.3702295 65.0935301,22.1889836 C70.7375278,20.0282951 77.3609282,21.7724262 81.1574653,26.5752787 C84.2599884,30.4995738 85.2458773,34.9161639 83.6135394,39.7558033 C83.1595116,41.1050164 82.5714375,42.4109508 81.9347176,44.0100984 Z"/>
        <path fill="#4A4A4A" d="M91.7038819,103.007607 L66.6761412,103.007607 C64.2773611,112.882721 59.0960394,120.855738 50.1679074,125.925836 C43.2277685,129.866361 35.7471204,131.20259 27.785419,129.916131 C13.1268079,127.549869 1.14047454,114.342295 0.085400463,99.4695738 C-1.109125,82.6222623 10.4610162,67.6467541 25.8828264,64.282918 C26.9476296,68.1531148 28.0232431,72.0600984 29.0880463,75.9205574 C14.9385949,83.1459344 10.041581,92.2496066 14.0013519,103.632984 C17.4876366,113.650918 27.3897662,119.141902 38.1415764,117.018 C49.1214815,114.849738 54.6573773,105.716852 53.9817407,91.0594426 C64.3908681,91.0594426 74.8086435,90.9512459 85.2188519,91.112459 C89.2834815,91.1762951 92.4216782,90.7543279 95.4842037,87.1676066 C100.526074,81.2654754 109.805537,81.7978033 115.235493,87.3720984 C120.784361,93.0686557 120.518431,102.235082 114.646338,107.691443 C108.98072,112.956295 100.029887,112.674984 94.7296528,107.00223 C93.6399861,105.832623 92.7816574,104.444459 91.7038819,103.007607 Z"/>
        <polygon fill="#4B4B4B" points="171.117 52.348 180.731 52.348 186.254 78.486 191.909 52.348 201.79 52.348 191.278 88.642 181.53 88.642 175.84 62.203 170.084 88.642 160.237 88.642 150.057 52.348 160.237 52.348 165.893 78.386"/>
        <path fill="#4B4B4B" d="M228.178146 53.0834754C230.707729 54.217377 232.796257 56.0069508 234.44481 58.4521967 235.93013 60.6085574 236.893317 63.1100656 237.334373 65.9567213 237.588412 67.6240328 237.693271 70.024918 237.645706 73.159377L211.234262 73.159377C211.382361 76.8001967 212.646072 79.3536393 215.027556 80.817541 216.475039 81.7285574 218.217641 82.1829836 220.255361 82.1829836 222.415236 82.1829836 224.168648 81.6279344 225.519921 80.518918 226.257176 79.9184262 226.906868 79.0874754 227.47116 78.0206557L237.151681 78.0206557C236.89656 80.1737705 235.724736 82.3615082 233.636208 84.579541 230.386667 88.11 225.840984 89.8746885 219.993755 89.8746885 215.168088 89.8746885 210.909956 88.3859016 207.221521 85.4094098 203.532005 82.4318361 201.687787 77.5878689 201.687787 70.8775082 201.687787 64.5901967 203.352556 59.7689508 206.683174 56.4148525 210.012711 53.0596721 214.334623 51.382623 219.651072 51.382623 222.805484 51.381541 225.648563 51.9495738 228.178146 53.0834754zM213.994102 61.281541C212.653639 62.6632131 211.810444 64.5360984 211.466681 66.8991148L227.801951 66.8991148C227.628988 64.3792131 226.787956 62.467377 225.276692 61.1636066 223.765428 59.8587541 221.889861 59.2063279 219.653234 59.2063279 217.219861 59.2074098 215.333484 59.8977049 213.994102 61.281541zM272.626384 56.7091475C275.339741 60.1508852 276.695338 64.5901967 276.695338 70.0292459 276.695338 75.667377 275.358118 80.3403934 272.681516 84.0472131 270.005995 87.7551148 266.273238 89.6085246 261.481083 89.6085246 258.470447 89.6085246 256.053289 89.0091148 254.224206 87.8102951 253.131296 87.1005246 251.949743 85.8573443 250.680627 84.0818361L250.680627 88.6434098 241.331979 88.6434098 241.331979 39.6281311 250.813593 39.6281311 250.813593 57.0759344C252.018928 55.3891475 253.3475 54.1016066 254.798227 53.2133115 256.518127 52.1042951 258.705028 51.5492459 261.360009 51.5492459 266.156488 51.5492459 269.914109 53.2684918 272.626384 56.7091475zM264.701438 78.8191475C266.065683 76.8445574 266.748887 74.2467541 266.748887 71.0279016 266.748887 68.4528197 266.41269 66.3213443 265.741377 64.6356393 264.466856 61.4384262 262.118884 59.8403607 258.697461 59.8403607 255.230634 59.8403607 252.84915 61.4048852 251.553009 64.5350164 250.881697 66.2001639 250.5455 68.3532787 250.5455 70.9954426 250.5455 74.1028525 251.239514 76.6779344 252.626461 78.7206885 254.012326 80.7634426 256.124637 81.7837377 258.965553 81.7837377 261.425951 81.7826557 263.337192 80.7959016 264.701438 78.8191475zM307.511933 52.5479016C309.332368 53.3258361 310.828498 54.5138361 311.99816 56.1140656 312.992697 57.4697705 313.599148 58.8644262 313.820757 60.2969508 314.042366 61.7294754 314.15263 64.0676066 314.15263 67.3113443L314.15263 88.6412459 304.472109 88.6412459 304.472109 66.5409836C304.472109 64.5847869 304.140236 63.0061967 303.479734 61.807377 302.622486 60.1184262 300.99231 59.2734098 298.59353 59.2734098 296.103944 59.2734098 294.217567 60.1119344 292.928993 61.7900656 291.6415 63.4681967 290.997213 65.8625902 290.997213 68.9743279L290.997213 88.6423279 281.5156 88.6423279 281.5156 39.7276721 290.997213 39.7276721 290.997213 57.0423934C292.367944 54.9347213 293.951637 53.4632459 295.74937 52.6312131 297.550347 51.7980984 299.444292 51.382623 301.433366 51.382623 303.663507 51.381541 305.689336 51.7710492 307.511933 52.5479016zM351.163461 84.2019344C348.103097 87.9834098 343.455799 89.8736066 337.223727 89.8736066 330.990574 89.8736066 326.345437 87.9834098 323.282912 84.2019344 320.22363 80.420459 318.692907 75.868623 318.692907 70.5442623 318.692907 65.3107869 320.22363 60.7751803 323.282912 56.9374426 326.344356 53.1007869 330.990574 51.182459 337.223727 51.182459 343.455799 51.182459 348.102016 53.1007869 351.163461 56.9374426 354.224905 60.7751803 355.754546 65.3107869 355.754546 70.5442623 355.754546 75.868623 354.224905 80.420459 351.163461 84.2019344zM343.579035 78.9576393C345.064354 76.9852131 345.808095 74.1807541 345.808095 70.5453443 345.808095 66.9110164 345.064354 64.1119672 343.579035 62.1503607 342.092634 60.1898361 339.964109 59.2074098 337.192377 59.2074098 334.419565 59.2074098 332.284553 60.1887541 330.787343 62.1503607 329.290132 64.1119672 328.542067 66.9099344 328.542067 70.5453443 328.542067 74.1807541 329.290132 76.9852131 330.787343 78.9576393 332.284553 80.9300656 334.418484 81.9157377 337.192377 81.9157377 339.964109 81.9157377 342.092634 80.9300656 343.579035 78.9576393zM390.927646 84.2019344C387.868363 87.9834098 383.221065 89.8736066 376.987912 89.8736066 370.754759 89.8736066 366.110704 87.9834098 363.05034 84.2019344 359.988896 80.420459 358.458174 75.868623 358.458174 70.5442623 358.458174 65.3107869 359.988896 60.7751803 363.05034 56.9374426 366.109623 53.1007869 370.754759 51.182459 376.987912 51.182459 383.221065 51.182459 387.867282 53.1007869 390.927646 56.9374426 393.98909 60.7751803 395.519812 65.3107869 395.519812 70.5442623 395.519812 75.868623 393.98909 80.420459 390.927646 84.2019344zM383.344301 78.9576393C384.828539 76.9852131 385.573361 74.1807541 385.573361 70.5453443 385.573361 66.9110164 384.828539 64.1119672 383.344301 62.1503607 381.8579 60.1898361 379.729375 59.2074098 376.957644 59.2074098 374.184831 59.2074098 372.048738 60.1887541 370.551528 62.1503607 369.054317 64.1119672 368.307333 66.9099344 368.307333 70.5453443 368.307333 74.1807541 369.054317 76.9852131 370.551528 78.9576393 372.048738 80.9300656 374.18375 81.9157377 376.957644 81.9157377 379.729375 81.9157377 381.8579 80.9300656 383.344301 78.9576393z"/>
        <polygon fill="#4B4B4B" points="400.218 39.728 409.533 39.728 409.533 66.206 421.491 52.515 433.282 52.515 420.284 66.036 433.785 88.643 422.246 88.643 413.46 73.137 409.533 77.222 409.533 88.643 400.218 88.643"/>
        <path fill="#4B4B4B" d="M442.851127,77.054459 C443.052197,78.7423279 443.486766,79.9411475 444.154836,80.650918 C445.336389,81.9157377 447.518965,82.5486885 450.705808,82.5486885 C452.578132,82.5486885 454.065613,82.2717049 455.169333,81.7155738 C456.273053,81.1605246 456.824373,80.3284918 456.824373,79.2183934 C456.824373,78.1526557 456.381155,77.3433443 455.491477,76.7872131 C454.60288,76.2321639 451.296044,75.2778689 445.572051,73.9243279 C441.451208,72.9040328 438.548674,71.6262295 436.861204,70.0952459 C435.176977,68.5848197 434.333782,66.4111475 434.333782,63.5688197 C434.333782,60.2168852 435.651544,57.3366885 438.284905,54.9282295 C440.919347,52.5197705 444.623998,51.315541 449.403181,51.315541 C453.936972,51.315541 457.631894,52.2200656 460.489025,54.0291148 C463.345076,55.8392459 464.9839,58.9639672 465.406579,63.4032787 L455.924965,63.4032787 C455.790919,62.1817377 455.447155,61.216623 454.891512,60.5057705 C453.845086,59.2193115 452.065729,58.574459 449.552361,58.574459 C447.485454,58.574459 446.012025,58.8968852 445.133157,59.5406557 C444.25537,60.1855082 443.815396,60.9396393 443.815396,61.8052131 C443.815396,62.8936721 444.282396,63.6813443 445.216396,64.1693115 C446.150396,64.681082 449.449664,65.5574754 455.117444,66.8006557 C458.892361,67.6889508 461.723549,69.0316721 463.608845,70.8299016 C465.472521,72.6508525 466.404359,74.9251475 466.404359,77.6560328 C466.404359,81.2524918 465.063896,84.1889508 462.386213,86.4643279 C459.707449,88.7397049 455.568229,89.8768525 449.969634,89.8768525 C444.258613,89.8768525 440.040479,88.672623 437.319556,86.2641639 C434.59647,83.854623 433.235468,80.7872459 433.235468,77.056623 L442.851127,77.056623 L442.851127,77.054459 Z"/>
      </g>
    </g>
  </g>
</svg>
